<svg width="98" height="113" viewBox="0 0 98 113" fill="none" xmlns="http://www.w3.org/2000/svg">
<ellipse cx="73.1309" cy="60.8166" rx="13.5" ry="2.86364" fill="#F2C7D2"/>
<path d="M72.9035 15.7152C77.2432 15.7152 80.7612 12.1972 80.7612 7.85752C80.7612 3.51787 77.2432 -0.00012207 72.9035 -0.00012207C68.5639 -0.00012207 65.0459 3.51787 65.0459 7.85752C65.0459 12.1972 68.5639 15.7152 72.9035 15.7152Z" fill="#FFB6CC"/>
<path d="M93.398 6.3099C91.6997 4.84928 89.1389 5.04232 87.6783 6.7406L78.3087 17.6389H67.5164L58.1312 6.72275C56.6706 5.02446 54.1098 4.83143 52.4115 6.29204C50.7132 7.75266 50.5201 10.3135 51.9808 12.0118L63.8219 25.7833L59.179 48.9646H64.1935V57.5821C64.1935 59.6743 65.8895 61.3715 67.9828 61.3715C70.075 61.3715 71.7722 59.6754 71.7722 57.5821V48.9646H74.0406V57.5821C74.0406 59.6743 75.7367 61.3715 77.83 61.3715C79.9222 61.3715 81.6193 59.6754 81.6193 57.5821V48.9646H86.6339L82.1003 25.6739L93.8321 12.0296C95.2927 10.3313 95.0996 7.77051 93.4014 6.3099H93.398Z" fill="#FFB6CC"/>
<g filter="url(#filter0_d_21_422)">
<circle cx="49" cy="64" r="41" fill="#FF6D99"/>
</g>
<path d="M27.7352 50.1626H24.1246C23.5381 50.1626 23.147 50.1887 22.743 50.2408V48.9113C23.134 48.9634 23.4859 48.9895 24.1507 48.9895H27.7352C27.7352 48.5594 27.7091 48.3117 27.657 47.9989H29.182C29.1299 48.3117 29.1038 48.5985 29.1038 48.9895H32.9359C33.5877 48.9895 33.9396 48.9765 34.3306 48.9113V50.2408C33.9266 50.1887 33.5355 50.1626 32.962 50.1626H29.1038V50.7752H32.0105C32.6492 50.7752 32.8968 50.7622 33.2488 50.7231C33.2097 51.1141 33.1966 51.3227 33.1966 51.7659V54.3337C33.1966 54.7768 33.2097 54.9854 33.2488 55.3764C32.8577 55.3373 32.6231 55.3243 31.9453 55.3243V55.9369H32.949C33.6007 55.9369 33.9526 55.9239 34.3437 55.8587V57.2012C33.9135 57.1491 33.4443 57.123 32.975 57.123H31.9453V58.8175C31.9453 59.2998 31.828 59.5474 31.5412 59.7299C31.2414 59.9254 30.7852 59.9906 29.8468 59.9906C29.6643 59.9906 29.3775 59.9776 28.9474 59.9646C28.8301 59.3519 28.7388 59.0391 28.5563 58.635C29.1299 58.7132 29.56 58.7393 30.0162 58.7393C30.4985 58.7393 30.5767 58.7002 30.5767 58.4395V57.123H24.1246C23.6554 57.123 23.1601 57.1491 22.743 57.2012V55.8587C23.134 55.9108 23.4859 55.9369 24.1507 55.9369H30.5767V55.3243H25.0631C24.4635 55.3243 24.1898 55.3373 23.8248 55.3764C23.8639 54.9723 23.877 54.7508 23.877 54.3337V51.7659C23.877 51.3488 23.8639 51.1141 23.8248 50.7231C24.1768 50.7622 24.4244 50.7752 25.0631 50.7752H27.7352V50.1626ZM27.7352 51.8571H25.2326V52.5349H27.7352V51.8571ZM29.1038 51.8571V52.5349H31.828V51.8571H29.1038ZM27.7352 53.5255H25.2326V54.2424H27.7352V53.5255ZM29.1038 53.5255V54.2424H31.828V53.5255H29.1038ZM27.9828 58.8045L26.8879 59.743C26.158 58.8697 25.8452 58.5699 25.0631 58.0224L26.1059 57.1882C26.9661 57.7487 27.4484 58.1658 27.9828 58.8045ZM38.5799 53.2779V58.4004C38.5799 59.1825 38.6059 59.6387 38.6581 60.0037H37.12C37.1721 59.5866 37.1982 59.1303 37.1982 58.3874V49.8498C37.1982 49.159 37.1852 48.794 37.1461 48.3769C37.5241 48.416 37.8239 48.429 38.4756 48.429H40.7827C41.4605 48.429 41.7603 48.416 42.1122 48.3769C42.0861 48.7419 42.0731 49.0808 42.0731 49.5891V52.1439C42.0731 52.7565 42.0861 53.0172 42.1122 53.3039C41.7994 53.2909 41.3692 53.2779 40.913 53.2779H38.5799ZM38.5799 49.563V50.3972H40.7957V49.563H38.5799ZM38.5799 51.4139V52.2351H40.7957V51.4139H38.5799ZM48.0168 49.8368V58.3874C48.0168 59.6387 47.6649 59.8733 45.7879 59.8733C45.5533 59.8733 45.2535 59.8603 44.7191 59.8472C44.6409 59.2216 44.5497 58.8566 44.3672 58.4265C45.0189 58.5047 45.5403 58.5438 46.1268 58.5438C46.5309 58.5438 46.6221 58.4917 46.6221 58.2179V53.2909H44.1717C43.7024 53.2909 43.2462 53.3039 42.9725 53.33C42.9986 53.0302 43.0116 52.7043 43.0116 52.1439V49.5891C43.0116 49.1459 42.9986 48.781 42.9725 48.3769C43.3505 48.416 43.6242 48.429 44.302 48.429H46.7264C47.3912 48.429 47.691 48.416 48.082 48.3769C48.0299 48.8331 48.0168 49.185 48.0168 49.8368ZM44.315 49.563V50.3972H46.6221V49.563H44.315ZM44.315 51.4139V52.2351H46.6221V51.4139H44.315ZM57.1801 52.2742H56.6717C56.398 52.5219 56.2677 52.6261 55.9679 52.8477C56.4892 53.4212 56.763 53.8123 57.1149 54.5031C57.7145 55.6892 58.0143 56.8232 58.0143 57.9703C58.0143 58.8306 57.8188 59.391 57.4147 59.7039C57.1279 59.9254 56.6978 60.0167 55.9288 60.0167C55.5768 60.0167 55.0424 59.9906 54.495 59.9515C54.4168 59.3259 54.3386 59.0521 54.117 58.5568C54.7687 58.6741 55.3161 58.7393 55.7723 58.7393C56.398 58.7393 56.6196 58.4917 56.6196 57.7878C56.6196 57.5271 56.5935 57.2925 56.5675 57.0448C55.1337 58.1006 53.752 58.8306 51.6013 59.6387C51.3015 59.1043 51.119 58.8306 50.7801 58.4395C52.8266 57.8921 54.886 56.9145 56.2546 55.8196C56.1503 55.5198 56.0852 55.3764 55.9548 55.0766C54.8208 55.8326 53.2046 56.5886 51.5883 57.123C51.3537 56.6799 51.1712 56.3931 50.8583 56.0151C52.618 55.598 54.1952 54.9593 55.4335 54.1903C55.2379 53.9035 55.1337 53.7732 54.9121 53.5125C54.0257 53.9948 53.1394 54.3597 51.8229 54.7508C51.6013 54.3206 51.484 54.1251 51.1321 53.6559C52.2921 53.4082 52.605 53.33 53.2697 53.0823C53.9866 52.8347 54.4689 52.6001 54.9381 52.2742H54.0257C53.5435 52.2742 53.1524 52.3003 52.7483 52.3394V51.0229C53.0872 51.075 53.361 51.0881 54.0257 51.0881H59.3699C60.1128 51.0881 60.3475 51.075 60.6603 51.0229V52.3394C60.2432 52.3003 59.8521 52.2742 59.3699 52.2742H58.4575C58.5878 52.952 58.7833 53.5386 59.0961 54.2685C59.8 53.7471 60.2692 53.2909 60.8037 52.6131L62.0419 53.5646C61.7421 53.7992 61.6379 53.8774 61.299 54.1772C60.6081 54.7768 60.3344 54.9854 59.7218 55.4155C60.4648 56.5234 61.4032 57.3577 62.7849 58.1397C62.446 58.4656 62.1592 58.8045 61.7421 59.4041C60.556 58.5177 60.0607 58.0746 59.4872 57.3837C58.3923 56.0412 57.6493 54.3858 57.1801 52.2742ZM55.8636 49.0547V48.781C55.8636 48.4812 55.8375 48.2596 55.7854 47.9989H57.3756C57.3235 48.2596 57.3104 48.4551 57.3104 48.7679V49.0547H60.921C61.5466 49.0547 61.9637 49.0417 62.3678 49.0026C62.3287 49.2763 62.3157 49.4979 62.3157 49.915V50.9317C62.3157 51.3227 62.3287 51.5703 62.3678 51.8571H60.9601V50.306H52.4486V51.8571H51.0278C51.0669 51.5703 51.093 51.3357 51.093 50.9317V49.915C51.093 49.537 51.0669 49.2763 51.0408 49.0026C51.4319 49.0417 51.8359 49.0547 52.4746 49.0547H55.8636ZM67.0732 59.2346L65.8904 59.3031C65.8806 59.1271 65.8708 59.0684 65.8415 58.8436C65.6557 57.6607 65.5873 56.908 65.5873 55.9206C65.5873 54.6595 65.7046 53.5451 65.9881 52.0982C66.0957 51.5508 66.1152 51.453 66.1348 51.1891L67.4252 51.3259C67.1906 51.9027 66.9657 52.9976 66.8093 54.2489C66.7115 54.9821 66.6724 55.5589 66.6627 56.4094C66.6627 56.6245 66.6529 56.7027 66.6431 56.9471C66.7506 56.6049 66.7702 56.5365 67.1515 55.6567L67.9335 56.0086C67.3958 57.1426 67.0635 58.2766 67.0635 58.9707C67.0635 59.0293 67.0635 59.1075 67.0732 59.2346ZM68.4223 53.3789L68.4419 52.2058C68.8818 52.3231 69.3999 52.3622 70.2504 52.3622C71.3355 52.3622 72.2642 52.2742 72.9094 52.0982L72.9681 53.2811C72.8899 53.2909 72.7432 53.3104 72.274 53.3691C71.6483 53.4473 70.9054 53.4864 70.182 53.4864C69.4683 53.4864 69.4586 53.4864 68.4223 53.3789ZM69.0968 54.9919L70.0549 55.4416C69.5661 56.0086 69.3608 56.4289 69.3608 56.8493C69.3608 57.4065 69.8985 57.6998 70.9152 57.6998C71.7754 57.6998 72.6259 57.5629 73.2418 57.3283L73.3396 58.5699C73.2027 58.5796 73.1636 58.5894 72.9388 58.6285C72.1567 58.7556 71.5604 58.8143 70.9152 58.8143C69.703 58.8143 68.9209 58.5405 68.4907 57.9638C68.305 57.7194 68.1975 57.3577 68.1975 57.0057C68.1975 56.3703 68.4907 55.7153 69.0968 54.9919ZM26.6272 71.6877H25.9886C26.3926 72.6652 26.8619 73.3561 27.7352 74.2033C27.67 74.3076 27.6179 74.3988 27.5788 74.451C27.305 74.8811 27.2659 74.9723 27.0574 75.5589C26.4839 74.7899 26.2101 74.3206 25.8191 73.3691C25.8582 74.1251 25.8712 74.4379 25.8712 75.1548V78.5047C25.8712 79.1564 25.8973 79.7169 25.9494 80.1079H24.4114C24.4635 79.6908 24.4896 79.1694 24.4896 78.5047V75.8196C24.4896 75.2461 24.5287 74.3206 24.5808 73.8644C24.2941 74.7768 24.1377 75.1809 23.7988 75.8457C23.499 76.4713 23.2643 76.8623 23.0297 77.1752C22.8081 76.5495 22.6257 76.1846 22.3128 75.7544C23.1601 74.7377 23.877 73.2909 24.3071 71.6877H23.6684C23.2513 71.6877 22.9906 71.7007 22.7169 71.7398V70.3451C22.9515 70.3972 23.2383 70.4103 23.6814 70.4103H24.4896V69.3545C24.4896 68.6637 24.4635 68.3639 24.4114 67.9989H25.9494C25.8973 68.3378 25.8712 68.7419 25.8712 69.3414V70.4103H26.6142C26.9531 70.4103 27.2138 70.3972 27.4484 70.3451V71.7268C27.1486 71.7007 26.927 71.6877 26.6272 71.6877ZM29.2472 80.0558H27.7743C27.8134 79.5735 27.8394 79.0261 27.8394 78.3874V69.8498C27.8394 69.4066 27.8264 69.0938 27.7873 68.4681C28.1392 68.4942 28.3869 68.5072 28.9474 68.5072H32.8577C33.4182 68.5072 33.705 68.4942 33.9787 68.4551C33.9526 68.8331 33.9396 69.185 33.9396 69.7846V78.3743C33.9396 79.0652 33.9657 79.6257 34.0048 80.0297H32.5188V79.2868H29.2472V80.0558ZM29.2472 69.8368V71.6877H32.5188V69.8368H29.2472ZM29.2472 72.9259V74.7638H32.5188V72.9259H29.2472ZM29.2472 76.0021V77.9833H32.5188V76.0021H29.2472ZM44.0413 73.3691H45.5012C45.4621 73.6037 45.449 73.8253 45.449 74.099C45.449 75.3894 45.7358 76.3279 46.3484 77.0709C46.961 77.8139 47.7692 78.3743 48.825 78.7784C48.473 79.2607 48.3427 79.5083 48.082 80.1601C46.5309 79.391 45.4881 78.3483 44.8364 76.9275C44.289 78.4917 43.3375 79.4432 41.5387 80.1861C41.3432 79.7169 41.1477 79.3259 40.913 79C40.9261 79.4692 40.9391 79.6126 40.9652 79.8994H39.6617V79.365H38.3713V80.0428H37.0288C37.0679 79.6387 37.0939 79.1825 37.0939 78.7654V76.7711C37.0939 76.3801 37.0809 76.1063 37.0418 75.7544C37.3025 75.7935 37.511 75.8066 37.9151 75.8066H40.157C40.5872 75.8066 40.7175 75.8066 40.9391 75.7674C40.913 76.0021 40.9 76.2237 40.9 76.7059V78.622C40.9 78.7002 40.9 78.7654 40.9 78.8957C41.9297 78.5438 42.5554 78.1528 43.1159 77.501C43.7937 76.719 44.0804 75.7023 44.0804 74.1772C44.0804 73.8123 44.0674 73.6168 44.0413 73.3691ZM38.3322 76.8623V78.244H39.6878V76.8623H38.3322ZM37.107 69.6282V68.3769C37.4068 68.429 37.6414 68.4421 38.1628 68.4421H39.8312C40.3526 68.4421 40.5741 68.429 40.887 68.3769V69.6282C40.535 69.6021 40.3004 69.5891 39.8312 69.5891H38.1628C37.6935 69.5891 37.4198 69.6021 37.107 69.6282ZM36.5986 71.5573V70.2017C36.9114 70.2539 37.1591 70.2669 37.6414 70.2669H40.1961C40.7306 70.2669 40.9261 70.2539 41.2389 70.2148V71.5573C40.9652 71.5182 40.7827 71.5052 40.2483 71.5052H37.6414C37.1852 71.5052 36.9114 71.5182 36.5986 71.5573ZM37.107 73.3691V72.1569C37.3546 72.183 37.5241 72.196 37.9281 72.196H40.0658C40.4829 72.196 40.6523 72.183 40.8739 72.1569V73.3691C40.6393 73.343 40.4438 73.33 40.0658 73.33H37.9281C37.5241 73.33 37.3546 73.343 37.107 73.3691ZM37.107 75.1809V73.9687C37.3546 73.9948 37.5241 74.0078 37.9281 74.0078H40.0658C40.4829 74.0078 40.6523 73.9948 40.8739 73.9687V75.1809C40.6523 75.1548 40.4438 75.1418 40.0528 75.1418H37.9281C37.5371 75.1418 37.3416 75.1548 37.107 75.1809ZM42.1122 68.7419L43.4026 69.0547C43.155 70.0714 42.9725 70.5406 42.5423 71.3097L41.3171 70.8143C41.7863 70.0714 41.9558 69.6412 42.1122 68.7419ZM47.1826 68.5854L48.447 69.0808C47.9256 70.0974 47.6258 70.5667 47.0001 71.3227C46.57 70.9838 46.3615 70.8534 45.8922 70.6579C46.5309 69.928 46.7916 69.4979 47.1826 68.5854ZM42.047 74.3988L43.3114 74.7899C42.9725 75.976 42.803 76.3931 42.3859 77.0839L41.1737 76.5365C41.6299 75.8848 41.8646 75.3243 42.047 74.3988ZM47.1696 74.2685L48.4209 74.7768C47.9256 75.8066 47.6779 76.2237 47.0783 76.9797C46.5961 76.6017 46.5309 76.5626 45.9835 76.3019C46.5439 75.6241 46.8177 75.1418 47.1696 74.2685ZM44.0674 68.1423H45.5142C45.4751 68.403 45.4621 68.6376 45.4621 68.8852C45.4621 69.5761 45.5924 70.3451 45.7879 70.7622C46.0356 71.3227 46.4266 71.7919 47.0132 72.2351C47.4694 72.574 47.8474 72.7565 48.6686 73.0432C48.3036 73.5646 48.1732 73.7862 47.9517 74.3337C46.9741 73.8644 46.3484 73.4212 45.7358 72.7434C45.3187 72.2742 45.2144 72.1178 44.8234 71.3488C44.6018 71.9223 44.315 72.4176 43.924 72.8608C43.3766 73.4734 42.8161 73.8514 41.7603 74.3337C41.5126 73.8123 41.3432 73.5386 41.0043 73.1606C42.2686 72.7434 42.9986 72.2351 43.533 71.3748C43.937 70.7231 44.1065 69.9671 44.1065 68.8722C44.1065 68.5724 44.0935 68.429 44.0674 68.1423ZM58.4314 72.0657L58.4183 73.1866C58.4183 73.2388 58.4314 73.343 58.4314 73.4994C58.7181 74.099 58.8485 74.6334 58.8485 75.3373C58.8485 76.7581 58.1707 77.9833 56.9063 78.8566C56.3589 79.2346 55.7593 79.5083 54.5471 79.9254C54.1821 79.1173 54.0518 78.9218 53.6217 78.4526C54.6905 78.244 55.2249 78.0615 55.8375 77.6966C56.7239 77.1882 57.2452 76.5234 57.3495 75.7935C56.9715 76.3931 56.2937 76.719 55.4335 76.719C54.8339 76.719 54.3646 76.5756 53.9215 76.2497C53.3088 75.8066 53.0221 75.233 53.0221 74.4901C53.0221 73.1084 54.1039 72.1178 55.6159 72.1178C56.1764 72.1178 56.6717 72.2612 56.9715 72.5088C56.9585 72.4437 56.9585 72.4437 56.9585 72.3524C56.9455 72.3263 56.9455 71.5964 56.9455 71.2445C55.0815 71.2966 53.8563 71.3357 53.2828 71.3748C51.3146 71.5182 51.3146 71.5182 50.9626 71.5703L50.9105 70.0192C51.1972 70.0453 51.3146 70.0453 51.5492 70.0453C51.875 70.0453 52.0836 70.0453 53.765 69.9801C54.6123 69.9541 54.7426 69.9541 55.8115 69.928C56.2416 69.915 56.2416 69.915 56.9194 69.8889C56.9063 68.6506 56.9063 68.6506 56.8412 68.3117L58.4835 68.2987C58.4314 68.7028 58.4314 68.7288 58.4183 69.8498C60.6863 69.8368 61.703 69.8107 62.1853 69.7586L62.1983 71.2575C61.7161 71.2184 61.0904 71.1923 60.0086 71.1923C59.6957 71.1923 59.4611 71.1923 58.4314 71.2184V72.0657ZM56.9324 74.2163C56.9324 73.6689 56.4762 73.317 55.7593 73.317C55.0946 73.317 54.5471 73.7862 54.5471 74.3597C54.5471 74.9593 55.0033 75.3894 55.655 75.3894C56.398 75.3894 56.9324 74.8941 56.9324 74.2163ZM67.8032 73.5907L67.8292 73.6168C69.0154 73.1475 69.5889 73.0172 70.5665 73.0172C72.7954 73.0172 74.2292 74.1642 74.2292 75.9499C74.2292 77.1882 73.6166 78.1788 72.4565 78.8306C71.6092 79.3128 70.5013 79.5735 69.3021 79.5735C68.2072 79.5735 67.2948 79.365 66.7735 78.9739C66.2781 78.609 65.9914 78.0615 65.9914 77.475C65.9914 76.3931 66.9299 75.611 68.2333 75.611C69.1457 75.611 69.9408 75.989 70.4883 76.6799C70.749 77.0057 70.8924 77.2925 71.0879 77.853C72.1697 77.4489 72.639 76.8884 72.639 75.963C72.639 74.9463 71.6353 74.2815 70.0581 74.2815C68.1551 74.2815 66.2521 75.0506 64.6879 76.4713L63.8016 75.0636C64.2578 74.842 64.7792 74.4901 65.6395 73.8383C66.8517 72.9129 68.5461 71.453 69.5368 70.4494C69.5628 70.4233 69.6932 70.293 69.7714 70.2148L69.7584 70.2017C69.263 70.2669 68.4288 70.319 66.0696 70.4233C65.7828 70.4363 65.6916 70.4494 65.4439 70.4885L65.3788 68.9243C65.8219 68.9765 66.1999 69.0026 66.9168 69.0026C68.0248 69.0026 69.615 68.9374 70.8793 68.8461C71.3355 68.807 71.4789 68.781 71.6875 68.6767L72.4956 69.8237C72.274 69.941 72.1828 70.0192 71.8178 70.3581C71.1661 70.9577 70.2146 71.805 69.7714 72.183C69.5368 72.3785 68.5983 73.0823 68.3376 73.2518C68.0117 73.4734 68.0117 73.4734 67.8032 73.5907ZM69.6801 78.231C69.4455 77.3316 68.9502 76.8623 68.2203 76.8623C67.751 76.8623 67.4512 77.097 67.4512 77.4619C67.4512 77.9833 68.0378 78.2831 69.0024 78.2831C69.25 78.2831 69.3152 78.2831 69.6801 78.231Z" fill="white"/>
<defs>
<filter id="filter0_d_21_422" x="0" y="15" width="98" height="98" filterUnits="userSpaceOnUse" color-interpolation-filters="sRGB">
<feFlood flood-opacity="0" result="BackgroundImageFix"/>
<feColorMatrix in="SourceAlpha" type="matrix" values="0 0 0 0 0 0 0 0 0 0 0 0 0 0 0 0 0 0 127 0" result="hardAlpha"/>
<feOffset/>
<feGaussianBlur stdDeviation="4"/>
<feComposite in2="hardAlpha" operator="out"/>
<feColorMatrix type="matrix" values="0 0 0 0 1 0 0 0 0 0.713726 0 0 0 0 0.8 0 0 0 1 0"/>
<feBlend mode="normal" in2="BackgroundImageFix" result="effect1_dropShadow_21_422"/>
<feBlend mode="normal" in="SourceGraphic" in2="effect1_dropShadow_21_422" result="shape"/>
</filter>
</defs>
</svg>
