<svg width="79" height="20" viewBox="0 0 79 20" fill="none" xmlns="http://www.w3.org/2000/svg">
<path d="M14.57 7.99944L14.6513 12.2476C15.5456 12.6338 16.7246 13.1623 17.5173 13.7518C17.9645 14.077 18.2084 14.5039 18.2084 15.073C18.2084 15.8454 17.7002 16.7398 16.8465 16.7398C16.5823 16.7398 16.3384 16.6585 16.0131 16.4349C15.5863 16.13 15.3627 16.0487 14.6513 15.6218C14.57 16.1706 14.509 16.6991 14.2651 17.2073C13.635 18.5895 11.9276 18.9757 10.5454 18.9757C8.22816 18.9757 5.76867 17.8577 5.76867 15.195C5.76867 12.6135 7.90294 11.3736 10.2608 11.3736C10.6876 11.3736 10.9316 11.4346 11.46 11.4956L11.3991 8.18238C10.8299 8.2027 10.2811 8.22303 9.73231 8.22303C9.06154 8.22303 7.47608 8.22303 6.88662 8.1214C6.6427 8.08075 6.35813 7.95879 6.1752 7.79618C5.82965 7.51161 5.72802 7.00345 5.72802 6.5766C5.72802 5.58061 6.21585 5.01147 7.25249 5.01147C7.82163 5.01147 8.89893 5.07245 9.87459 5.07245C10.3624 5.07245 10.8299 5.07245 11.3178 5.05212C11.3178 4.50331 11.2771 3.24308 11.2771 2.93818C11.2771 1.84056 11.8259 1.29175 12.9032 1.29175C14.0212 1.29175 14.4683 1.88121 14.4683 2.93818C14.4683 3.16177 14.4887 4.32037 14.4887 4.84886C14.9358 4.80821 16.0741 4.6456 16.4197 4.6456C17.3953 4.6456 17.7815 5.33669 17.7815 6.23105C17.7815 7.53194 17.2937 7.77585 14.57 7.99944ZM0.890349 11.333C0.890349 7.51161 1.25622 4.15776 1.80503 2.47068C2.02862 1.79991 2.57744 1.55599 3.26853 1.55599C4.08158 1.55599 4.91496 1.94219 4.91496 2.85688C4.91496 3.2634 4.77268 4.03581 4.69137 4.46266C4.2442 6.77986 4.04093 8.8938 4.04093 11.1703C4.04093 13.3046 4.22387 14.951 4.61007 17.0243C4.65072 17.2276 4.69137 17.5528 4.69137 17.7358C4.69137 18.6504 3.81734 18.996 3.02462 18.996C2.43515 18.996 1.90667 18.874 1.64242 18.3049C1.13427 17.1666 0.890349 14.5445 0.890349 11.333ZM11.5414 14.3616C11.1145 14.2193 10.6673 14.138 10.1998 14.138C9.54937 14.138 8.61436 14.3616 8.61436 15.1746C8.61436 15.9877 9.50872 16.2316 10.1795 16.2316C11.1958 16.2316 11.5414 15.7641 11.5414 14.7884V14.3616ZM32.2945 19.1179C31.7864 19.1179 31.2376 18.7521 30.018 17.8374C28.0057 16.3129 24.3469 14.2803 22.0094 12.9794C20.8508 12.329 19.8345 11.6988 19.8345 10.215C19.8345 8.69054 21.0338 7.95879 22.172 7.24737C24.9567 5.53995 27.7211 3.85287 30.3432 1.92187C30.7294 1.6373 31.1766 1.35273 31.6644 1.35273C32.5994 1.35273 33.4531 2.20644 33.4531 3.12112C33.4531 3.89352 32.945 4.23907 32.1726 4.76755C29.957 6.2717 27.6398 7.65389 25.3226 8.99543C24.3266 9.56457 23.8388 9.86946 23.8388 10.1744C23.8388 10.3166 23.9607 10.4183 24.0827 10.4996C24.5299 10.7841 25.0177 10.9874 25.5055 11.2313C27.4162 12.207 31.014 14.2193 32.7214 15.4795C33.3312 15.9267 34.0629 16.4755 34.0629 17.3089C34.0629 18.2236 33.2499 19.1179 32.2945 19.1179ZM33.9816 5.15375C34.4288 5.15375 35.2215 6.14974 35.6077 6.6579C35.9126 7.0441 36.685 8.04009 36.685 8.5076C36.685 9.03608 36.0956 9.5849 35.5874 9.5849C35.2419 9.5849 35.0589 9.38163 34.7337 8.83282C34.3475 8.18238 33.819 7.57259 33.3109 7.02378C33.0466 6.73921 32.8434 6.49529 32.8434 6.21072C32.8434 5.68224 33.4735 5.15375 33.9816 5.15375ZM31.5018 6.94247C31.9896 6.94247 32.762 7.97911 33.0873 8.40597C33.5141 8.97511 34.2052 9.91012 34.2052 10.276C34.2052 10.7841 33.6564 11.3736 33.1279 11.3736C32.7214 11.3736 32.4978 11.0281 32.2539 10.6215C31.8677 10.0117 31.3392 9.36131 30.831 8.81249C30.5668 8.52793 30.3635 8.28401 30.3635 7.99944C30.3635 7.47096 30.9937 6.94247 31.5018 6.94247ZM54.7145 1.92187C55.1413 1.92187 55.9137 2.83655 56.3609 3.40569C56.7878 3.91385 57.4789 4.82853 57.4789 5.23506C57.4789 5.76354 56.8894 6.33268 56.3813 6.33268C56.0154 6.33268 55.8528 6.08877 55.5275 5.60093C55.1007 4.97082 54.5925 4.38135 54.0844 3.81222C53.7592 3.46667 53.5965 3.2634 53.5965 2.99916C53.5965 2.47068 54.2063 1.92187 54.7145 1.92187ZM46.0758 3.12112C47.1734 3.12112 47.7629 3.6496 48.393 4.48298C49.7549 6.31235 51.0964 8.2027 52.5192 10.0117C53.7185 11.5566 54.9787 13.081 56.239 14.5852C56.7065 15.1137 57.052 15.5202 57.052 16.13C57.052 17.0853 56.2186 18.0203 55.2227 18.0203C54.4502 18.0203 53.8608 17.2683 53.373 16.6381C51.0761 13.7924 48.9215 10.8248 46.8279 7.8165C46.4823 7.32867 46.34 7.10508 46.0758 7.10508C45.8116 7.10508 45.5676 7.47096 45.2831 7.87748C44.4294 9.07674 42.4984 11.8208 41.6243 12.8168C41.2788 13.2233 40.9536 13.4876 40.3844 13.4876C39.4697 13.4876 38.4941 12.6542 38.4941 11.7395C38.4941 11.211 38.7786 10.8451 39.1039 10.4589C40.5064 8.79217 41.8682 7.06443 43.1488 5.27571C43.9822 4.11711 44.7139 3.12112 46.0758 3.12112ZM52.0924 3.77156C52.5192 3.77156 53.2713 4.6456 53.6982 5.21473C54.0031 5.62126 54.8568 6.59692 54.8568 7.08476C54.8568 7.59291 54.308 8.18238 53.7795 8.18238C53.3526 8.18238 53.1087 7.77585 52.9054 7.45063C52.4786 6.80019 51.9908 6.21072 51.442 5.66191C51.1167 5.31636 50.9541 5.1131 50.9541 4.84886C50.9541 4.32037 51.5639 3.77156 52.0924 3.77156ZM75.9962 -0.00913606C76.1588 -0.00913606 76.362 0.112822 76.5043 0.255107C76.6669 0.417716 76.9718 0.763265 77.5003 1.69828C77.7442 2.08448 78.3744 3.14145 78.3744 3.5683C78.3744 4.13744 77.8052 4.44233 77.3377 4.44233C76.8702 4.44233 76.6873 4.03581 76.484 3.58863C76.1588 2.89753 75.7523 2.24709 75.3051 1.61697C75.0408 1.2511 74.9392 1.06816 74.9392 0.885222C74.9392 0.39739 75.3661 -0.00913606 75.9962 -0.00913606ZM73.3131 1.23077C73.4757 1.23077 73.6383 1.3324 73.8009 1.49501C74.0245 1.7186 74.2075 1.90154 74.8579 2.89753C75.2238 3.46667 75.7523 4.40168 75.7523 4.76755C75.7523 5.29604 75.2034 5.64159 74.7359 5.64159C74.3294 5.64159 74.1261 5.25539 73.8822 4.80821C73.5164 4.13744 73.0692 3.38536 72.6423 2.83655C72.4187 2.55198 72.2561 2.32839 72.2561 2.12513C72.2561 1.55599 72.7846 1.23077 73.3131 1.23077ZM64.1662 7.51161C66.5851 6.9628 68.9226 6.10909 71.1585 5.09277C71.504 4.95049 71.8293 4.80821 72.1951 4.80821C73.1098 4.80821 73.8009 5.68224 73.8009 6.55627C73.8009 7.53194 72.9269 7.95879 71.1382 8.64988C68.8616 9.50359 66.5241 10.1947 64.1662 10.7232V13.5892C64.1662 14.6055 64.3695 15.0527 65.3655 15.2153C66.0769 15.3372 67.1339 15.3576 68.8006 15.3576C70.1219 15.3576 71.4431 15.3372 72.7643 15.2763C73.3131 15.2559 74.1871 15.1746 74.6953 15.1746C75.7523 15.1746 76.3011 15.6015 76.3011 16.6991C76.3011 17.5325 75.9352 18.1423 75.1221 18.3252C74.2481 18.5285 70.1828 18.5285 68.9429 18.5285C67.8047 18.5285 66.3208 18.5285 64.7354 18.3659C63.8004 18.2642 62.9263 17.9797 62.3165 17.5325C61.2189 16.7398 60.853 15.6015 60.853 14.2803V2.81622C60.853 1.65762 61.5035 1.31208 62.5605 1.31208C63.5768 1.31208 64.1662 1.73893 64.1662 2.81622V7.51161Z" fill="#352E30"/>
</svg>
